<?xml version="1.0" encoding="UTF-8"?>
<svg width="147px" height="160px" viewBox="0 0 147 160" version="1.1" xmlns="http://www.w3.org/2000/svg" xmlns:xlink="http://www.w3.org/1999/xlink">
    <title>形状结合</title>
    <g id="页面-1" stroke="none" stroke-width="1" fill="none" fill-rule="evenodd" opacity="0.200000003">
        <g id="01资产001——sherpax" transform="translate(-785.000000, -198.000000)" fill="#FFFFFF">
            <g id="分组-4" transform="translate(16.000000, 77.000000)">
                <g id="分组-6" transform="translate(16.000000, 16.000000)">
                    <path d="M774.320041,232.692325 C775.462797,232.692325 776.523777,233.26637 777.150384,234.210782 L777.262696,234.392149 L794.929,264.999 L753.706,264.999 L771.377386,234.392149 C771.984003,233.340368 773.105863,232.692325 774.320041,232.692325 Z M895.579402,185.078955 L895.682258,185.245993 L899.999,192.722 L900,255 C900,260.522847 895.522847,265 890,265 L810.519,264.999 L790.426087,230.179864 C789.938485,229.333439 789.838851,228.318073 790.152624,227.393012 C790.443985,226.534027 791.065616,225.83011 791.875074,225.433602 L792.065141,225.347626 L891.427511,183.810759 C892.944176,183.175405 894.687623,183.719399 895.579402,185.078955 Z M847.754777,105.5 C848.897533,105.5 849.958512,106.074045 850.585119,107.018456 L850.697432,107.199824 L885.194008,166.961618 C885.682072,167.806948 885.782918,168.821378 885.470834,169.746252 C885.181042,170.605063 884.561209,171.309584 883.753188,171.707534 L883.563446,171.793857 L792.625647,209.806332 C791.281848,210.364063 789.732075,210.004094 788.771679,208.911163 C787.857016,207.870277 787.670378,206.38471 788.2817,205.156334 L788.379392,204.974094 L844.812122,107.199824 C845.418739,106.148042 846.540599,105.5 847.754777,105.5 Z" id="形状结合"></path>
                </g>
            </g>
        </g>
    </g>
</svg>