<?xml version="1.0" encoding="UTF-8"?>
<svg width="131px" height="26px" viewBox="0 0 131 26" version="1.1" xmlns="http://www.w3.org/2000/svg" xmlns:xlink="http://www.w3.org/1999/xlink">
    <title>SherpaX logo</title>
    <defs>
        <linearGradient x1="4.80696801%" y1="64.3849621%" x2="129.243207%" y2="38.0232439%" id="linearGradient-1">
            <stop stop-color="#FFC859" offset="0%"></stop>
            <stop stop-color="#F02222" offset="100%"></stop>
        </linearGradient>
        <linearGradient x1="24.1200931%" y1="25.7884176%" x2="74.9944768%" y2="89.8619218%" id="linearGradient-2">
            <stop stop-color="#0097FF" offset="5%"></stop>
            <stop stop-color="#B930C0" offset="99%"></stop>
        </linearGradient>
        <linearGradient x1="53.6271297%" y1="112.324035%" x2="41.5208287%" y2="0.15557626%" id="linearGradient-3">
            <stop stop-color="#367DFF" offset="0%"></stop>
            <stop stop-color="#31FFA1" offset="100%"></stop>
        </linearGradient>
    </defs>
    <g id="页面-1" stroke="none" stroke-width="1" fill="none" fill-rule="evenodd">
        <g id="01资产001——sherpax" transform="translate(-16.000000, -17.000000)" fill-rule="nonzero">
            <g id="SherpaX-logo" transform="translate(16.000000, 17.000000)">
                <g id="编组-18" transform="translate(0.934534, 0.683257)">
                    <path d="M0.441864827,24.9999995 L9.16438067,24.9999995 C9.32232473,24.9998376 9.46819755,24.9154683 9.54709946,24.7786441 C9.62600137,24.64182 9.62595811,24.4733057 9.54698596,24.3365221 L5.18683383,16.7828323 C5.10784731,16.6458815 4.96177175,16.561501 4.80367565,16.561501 C4.64557954,16.561501 4.49950398,16.6458815 4.42051747,16.7828323 L0.0592595428,24.3365221 C-0.0197126125,24.4733057 -0.0197558752,24.64182 0.0591460368,24.7786441 C0.138047949,24.9154683 0.283920765,24.9998376 0.441864827,24.9999995 Z" id="路径" fill="url(#linearGradient-1)"></path>
                    <path d="M20.0520443,10.1967136 L7.11423559,15.6051599 C6.99679614,15.6540019 6.90606578,15.7510356 6.86520993,15.8714863 C6.82435408,15.9919369 6.83732723,16.124146 6.90081704,16.2343576 L11.8315597,24.7788404 C11.9104912,24.9155539 12.056302,24.9998376 12.214165,25 L28.278058,25 C28.4361995,25.0002328 28.5824344,24.9160196 28.6616062,24.7791231 C28.740778,24.6422267 28.7408401,24.4734768 28.661769,24.3365221 L20.6060479,10.383593 C20.4947463,10.1907301 20.2574262,10.110676 20.0520443,10.1967136 Z" id="路径" fill="url(#linearGradient-2)"></path>
                    <path d="M13.9823322,0.22133128 L6.63432029,12.9523562 C6.53980764,13.1165421 6.56034774,13.3226868 6.6853993,13.4649954 C6.81045085,13.6073041 7.01224434,13.6541751 7.1872181,13.581554 L19.0280776,8.63201276 C19.1453238,8.58295061 19.2357995,8.4858238 19.2764354,8.36539753 C19.3170714,8.24497126 19.3039403,8.11288399 19.2403904,8.00281505 L14.7486485,0.22133128 C14.669662,0.084380531 14.5235865,1.27009514e-13 14.3654904,1.27009514e-13 C14.2073943,1.27009514e-13 14.0613187,0.084380531 13.9823322,0.22133128 Z" id="路径" fill="url(#linearGradient-3)"></path>
                </g>
                <g id="编组-17" transform="translate(37.334204, 4.683257)" fill="#282828">
                    <path d="M9.23705556e-14,14.0528634 L1.9247404,11.7491976 C3.04520532,12.6726715 4.4279067,13.3000315 5.86456104,13.3000315 C7.30121539,13.3000315 7.94614144,12.7479547 7.94614144,12.0239813 C7.94614144,10.9562146 7.06783748,10.698997 5.66255113,10.1105334 L3.73153713,9.28492763 C2.08910872,8.65756765 0.594737256,7.4028477 0.594737256,5.24347467 C0.594737256,2.78798773 2.80555381,0.826846746 6.02641992,0.826846746 C7.85428403,0.823291633 9.61468503,1.5170413 10.9486863,2.76665749 L9.25857851,4.88211532 C8.21590623,4.12928335 7.29117763,3.72400881 5.84323081,3.72400881 C4.73782253,3.72400881 3.98875472,4.18198159 3.98875472,5.04773836 C3.98875472,5.93858952 4.98249292,6.26481671 6.40409062,6.79807269 L8.21590623,7.57098018 C10.156958,8.29871775 11.3828194,9.5095225 11.3828194,11.5998859 C11.3828194,14.0641559 9.31504091,16.1984346 5.64623977,16.1984346 C3.56550021,16.1956507 1.55749429,15.4326085 9.23705556e-14,14.0528634 L9.23705556e-14,14.0528634 Z" id="路径"></path>
                    <path d="M12.9110683,3.55271368e-15 L16.2599158,3.55271368e-15 L16.2599158,3.88963184 L16.0641795,6.0628068 L16.1482458,6.0628068 C16.9838892,5.19454059 18.1984581,4.3777179 19.8885659,4.3777179 C22.4218455,4.3777179 23.5448199,6.12052391 23.5448199,8.96622876 L23.5448199,15.9336886 L20.197227,15.9336886 L20.197227,9.38906938 C20.197227,7.88340544 19.7643486,7.22091331 18.5422514,7.22091331 C17.6488908,7.22091331 17.0365875,7.63371617 16.2599158,8.39533118 L16.2599158,15.9236509 L12.9110683,15.9236509 L12.9110683,3.55271368e-15 Z" id="路径"></path>
                    <path d="M24.9425779,10.2774111 C24.9425779,6.5847703 27.7907922,4.36893486 30.8121578,4.36893486 C34.2927509,4.36893486 36.1246421,6.71777061 36.1246421,9.78430617 C36.1168176,10.2865787 36.0698322,10.787476 35.9841134,11.2824418 L27.4244139,11.2824418 L27.4244139,9.03398364 L33.7205986,9.03398364 L33.1936163,9.67263609 C33.1936163,7.86082048 32.4069069,6.9122522 30.9238279,6.9122522 C29.270107,6.9122522 28.1860289,8.03271712 28.1860289,10.2761564 C28.1860289,12.6162091 29.4595697,13.6450795 31.6540749,13.6450795 C32.6779264,13.6450795 33.5599945,13.3677863 34.561261,12.8621342 L35.6691787,14.8772144 C34.3276054,15.7195055 32.7800315,16.1761809 31.1961021,16.1971804 C27.6791221,16.1984346 24.9425779,14.027769 24.9425779,10.2774111 Z" id="路径"></path>
                    <path d="M38.7344596,4.64246381 L41.4860604,4.64246381 L41.7495516,7.11049795 L41.828599,7.11049795 C42.9390261,5.26982379 44.6027848,4.36893486 46.4033079,4.36893486 C47.1516171,4.34396537 47.8949169,4.49976997 48.5702093,4.82314349 L47.8914058,7.63622561 C47.1837437,7.41915906 46.7257709,7.30497955 45.8938916,7.30497955 C44.4961336,7.30497955 43.0582245,8.0314624 42.0833071,10.0565804 L42.0833071,15.9249056 L38.7344596,15.9249056 L38.7344596,4.64246381 Z" id="路径"></path>
                    <path d="M50.1687225,4.64246381 L52.8964836,4.64246381 L53.1373899,5.79053257 L53.2227108,5.79053257 C54.1311281,4.95990796 55.3733008,4.37018958 56.5841056,4.37018958 C59.3996971,4.37018958 61.1010974,6.62868549 61.1010974,10.1092786 C61.1010974,13.9763255 58.7359503,16.1996893 56.2076896,16.1996893 C55.2164608,16.1996893 54.2377793,15.7580278 53.4347585,14.9801015 L53.3557111,14.9801015 L53.5112964,16.8132473 L53.5112964,20.116925 L50.1687225,20.116925 L50.1687225,4.64246381 Z M57.6794761,10.1419014 C57.6794761,8.11803807 57.0157292,7.11049795 55.5978957,7.11049795 C54.8827053,7.11049795 54.2177037,7.41414018 53.5163153,8.15818911 L53.5163153,12.7103131 C54.0473447,13.1888225 54.7350517,13.4565864 55.4498387,13.4631451 C56.6832284,13.4568715 57.6794761,12.4756805 57.6794761,10.1406466 L57.6794761,10.1419014 Z" id="形状"></path>
                    <path d="M62.3407607,12.7981435 C62.3407607,10.2698828 64.4311241,8.98254012 69.7624292,8.65756765 C69.6444855,7.65379169 68.8841252,7.02643172 67.3696783,7.02643172 C66.2818361,7.02643172 65.1990127,7.44550818 63.9304909,8.08290592 L62.7359975,5.89718376 C64.3006333,5.00507788 66.0999017,4.3714443 68.015859,4.3714443 C71.1890458,4.3714443 73.1112767,6.02014632 73.1112767,9.4781545 L73.1112767,15.927415 L70.3759873,15.927415 L70.135081,14.6563837 L70.0497601,14.6563837 C68.9104744,15.5133575 67.4989144,16.200944 66.0509676,16.200944 C63.7673773,16.1984346 62.3407607,14.6940253 62.3407607,12.7981435 Z M69.7624292,12.5296334 L69.7624292,10.6801762 C66.4424402,10.847054 65.551589,11.5660085 65.551589,12.5296334 C65.551589,13.2548615 66.1638924,13.6074379 67.1086965,13.6074379 C68.1137272,13.6074379 68.9644273,13.1469556 69.7624292,12.5283787 L69.7624292,12.5296334 Z" id="形状"></path>
                    <path d="M85.7676369,8.47437854 L83.5969714,6.16820327 L79.5630467,1.88207992 C79.4783699,1.78873672 79.3590529,1.73429548 79.2330554,1.73151353 L75.5567259,1.73151353 C75.1363947,1.73151353 74.929366,2.27229783 75.2229704,2.58848726 L80.9269273,8.65756765 C81.0184843,8.75774295 81.0184843,8.91122338 80.9269273,9.01139868 L75.2254799,15.0691866 C74.9268565,15.3841213 75.1376495,15.9249056 75.5592354,15.9249056 L79.2330554,15.9249056 C79.3598629,15.9244273 79.4807632,15.8712493 79.5668109,15.7781034 L83.5994808,11.4907253 L85.7701463,9.18455003 C85.9528935,8.98272239 85.9518059,8.67490965 85.7676369,8.47437854 L85.7676369,8.47437854 Z" id="路径"></path>
                    <path d="M85.8905994,6.16820327 L87.0336493,7.31125315 C87.1806109,7.45803198 87.418689,7.45803198 87.5656506,7.31125315 L92.2884165,2.58848726 C92.4321221,2.44494148 92.4751389,2.22893089 92.3973876,2.04128375 C92.3196363,1.85363662 92.1364481,1.73135368 91.9333307,1.73151337 L88.0298969,1.73151337 C87.8965676,1.73174136 87.7688083,1.78501199 87.6748112,1.87957048 L84.9043896,4.64873741 C84.833515,4.7193663 84.7936774,4.8153072 84.7936774,4.9153654 C84.7936774,5.0154236 84.833515,5.1113645 84.9043896,5.18199339 L85.8905994,6.16820327 Z" id="路径"></path>
                    <path d="M87.5656506,10.3489301 C87.418689,10.2021513 87.1806109,10.2021513 87.0336493,10.3489301 L85.8905994,11.4907253 L84.9043896,12.4781899 C84.7576107,12.6251515 84.7576107,12.8632296 84.9043896,13.0101912 L87.6735565,15.7781034 C87.7674517,15.8718946 87.8946733,15.924678 88.0273875,15.9249056 L91.932076,15.9249056 C92.134415,15.9240561 92.3164545,15.801786 92.3937714,15.6147997 C92.4710884,15.4278134 92.4285591,15.2126864 92.285907,15.0691866 L87.5656506,10.3489301 Z" id="路径"></path>
                </g>
            </g>
        </g>
    </g>
</svg>