<?xml version="1.0" encoding="UTF-8"?>
<svg width="88px" height="76px" viewBox="0 0 88 76" version="1.1" xmlns="http://www.w3.org/2000/svg" xmlns:xlink="http://www.w3.org/1999/xlink">
    <title>shap@2x</title>
    <g id="页面-1" stroke="none" stroke-width="1" fill="none" fill-rule="evenodd">
        <g id="sherpax样式补充" transform="translate(-596.000000, -233.000000)" fill="#F2F3F4" fill-rule="nonzero">
            <g id="分组" transform="translate(442.000000, 233.000000)">
                <path d="M168.603174,50.3469871 C169.083786,50.3469871 169.527856,50.603504 169.767975,51.0198342 L169.767975,51.0198342 L183.022837,73.9830515 C183.262913,74.3988736 183.263044,74.911157 183.023182,75.3271023 C182.783321,75.7430477 182.339867,75.9995305 181.859717,76.0000227 L181.859717,76.0000227 L155.343269,76.0000227 C154.863119,75.9995305 154.419666,75.7430477 154.179804,75.3271023 C153.939942,74.911157 153.940074,74.3988736 154.180149,73.9830515 L154.180149,73.9830515 L167.438373,51.0198342 C167.678492,50.603504 168.122562,50.3469871 168.603174,50.3469871 Z M214.958215,30.9980334 C215.582576,30.7364793 216.304029,30.9798437 216.642386,31.5661469 L216.642386,31.5661469 L241.131778,73.9830515 C241.372154,74.3993937 241.371965,74.9123932 241.131283,75.3285584 C240.890601,75.7447237 240.446047,76.0007319 239.965296,76.0000241 L239.965296,76.0000241 L191.131062,76.0000241 C190.651158,75.9995304 190.207893,75.743308 189.967942,75.3276989 L189.967942,75.3276989 L174.978484,49.3524714 C174.785475,49.017428 174.746036,48.6155124 174.870238,48.2493424 C174.99444,47.8831724 175.27026,47.5881899 175.627276,47.4397103 L175.627276,47.4397103 Z M197.671091,2.4135983e-05 C198.151703,2.4135983e-05 198.595773,0.25654095 198.835892,0.672871228 L198.835892,0.672871228 L212.490787,24.3285819 C212.683979,24.6631915 212.723897,25.0647368 212.600364,25.4308326 C212.476831,25.7969285 212.201784,26.092194 211.845356,26.2413429 L211.845356,26.2413429 L175.849143,41.2879482 C175.317223,41.5087165 174.703771,41.3662286 174.323614,40.9336103 C173.943457,40.5009919 173.881015,39.8743122 174.168334,39.3751871 L174.168334,39.3751871 L196.50629,0.672871228 C196.746409,0.25654095 197.190479,2.4135983e-05 197.671091,2.4135983e-05 Z" id="shap"></path>
            </g>
        </g>
    </g>
</svg>