<?xml version="1.0" encoding="UTF-8"?>
<svg width="25px" height="25px" viewBox="0 0 25 25" version="1.1" xmlns="http://www.w3.org/2000/svg" xmlns:xlink="http://www.w3.org/1999/xlink">
    <title>icon_SBTC</title>
    <g id="v0.0.5" stroke="none" stroke-width="1" fill="none" fill-rule="evenodd">
        <g id="1聊天页面转账切换token" transform="translate(-22.000000, -303.000000)" fill-rule="nonzero">
            <g id="编组-6" transform="translate(-1.000000, 208.000000)">
                <g id="编组-5" transform="translate(0.500000, 0.000000)">
                    <g id="icon_SBTC_30" transform="translate(22.500000, 95.500000)">
                        <g id="icon_btc_24" transform="translate(0.461538, 0.461538)">
                            <rect id="矩形" fill="#000000" opacity="0" x="0" y="0" width="24" height="24"></rect>
                            <path d="M12,0 C18.628125,0 24,5.37187501 24,12 C24,18.628125 18.628125,24 12,24 C5.37187498,24 0,18.628125 0,12 C0,5.37187503 5.37421875,0 12,0 Z" id="路径" fill="#B329AA"></path>
                            <path d="M15.2921965,7.48662422 L15.878307,5.28973814 L14.1734795,4.844586 L13.5922331,7.02703467 L12.0673731,6.62760085 L12.6486196,4.44515217 L10.9437921,4 L10.3625457,6.1824487 L8.02783193,5.57367303 L7.72383272,6.71663129 L9.40920424,7.15697098 L6.98937068,16.2452937 L5.30399919,15.804954 L5,16.9479122 L7.33471377,17.5566879 L6.75103532,19.7343241 L8.45586277,20.1794763 L9.03710921,17.9970276 L10.4671214,18.3723992 L9.88587495,20.5548478 L11.5907024,21 L12.1719488,18.8175513 L12.2497726,18.8368011 C14.8860536,19.5249823 16.5179212,18.3723992 16.9483841,16.7650389 C17.3204791,15.3742392 16.624929,13.8799717 14.5723264,13.0762916 C16.3792976,13.2110403 17.5855664,12.42661 17.9114535,11.1994338 C18.2786846,9.82307147 17.5223346,8.23977352 15.2921965,7.48662422 L15.2921965,7.48662422 Z M14.3169671,16.0455768 C14.1272716,16.7578202 13.3976736,17.9176221 11.8898376,17.5230007 L9.34354041,16.8588818 L10.4428015,12.7442321 L13.1666342,13.4540694 C13.6530329,13.5840057 14.742566,14.4382166 14.3169671,16.0455768 Z M15.3627243,10.5353149 C15.0344052,11.7624912 14.343719,12.3447983 12.8893869,11.9670205 L10.7905765,11.4184006 L11.7633739,7.76815287 L14.2756232,8.42264685 C14.5966464,8.50927106 15.7494113,9.08676576 15.3627243,10.5353149 L15.3627243,10.5353149 Z" id="形状" fill="#FFFFFF"></path>
                        </g>
                    </g>
                </g>
            </g>
        </g>
    </g>
</svg>