<?xml version="1.0" encoding="UTF-8"?>
<svg width="57px" height="48px" viewBox="0 0 57 48" version="1.1" xmlns="http://www.w3.org/2000/svg" xmlns:xlink="http://www.w3.org/1999/xlink">
    <title>PCX Assets</title>
    <defs>
        <linearGradient x1="4.80696801%" y1="64.3849621%" x2="129.243207%" y2="38.0232439%" id="linearGradient-1">
            <stop stop-color="#FFC859" offset="0%"></stop>
            <stop stop-color="#F02222" offset="100%"></stop>
        </linearGradient>
        <linearGradient x1="24.1200931%" y1="25.7884176%" x2="74.9944768%" y2="89.8619218%" id="linearGradient-2">
            <stop stop-color="#0097FF" offset="5%"></stop>
            <stop stop-color="#B930C0" offset="99%"></stop>
        </linearGradient>
        <linearGradient x1="53.6271297%" y1="112.324035%" x2="41.5208287%" y2="0.15557626%" id="linearGradient-3">
            <stop stop-color="#367DFF" offset="0%"></stop>
            <stop stop-color="#31FFA1" offset="100%"></stop>
        </linearGradient>
    </defs>
    <g id="页面-1" stroke="none" stroke-width="1" fill="none" fill-rule="evenodd">
        <g id="01资产001——sherpax" transform="translate(-47.000000, -113.000000)" fill-rule="nonzero">
            <g id="分组-4" transform="translate(16.000000, 77.000000)">
                <g id="PCX-Assets" transform="translate(31.902439, 36.000000)">
                    <path d="M0.848380468,47.9999991 L17.5956109,47.9999991 C17.8988635,47.9996882 18.1789393,47.8376991 18.330431,47.5749968 C18.4819226,47.3122944 18.4818396,46.988747 18.330213,46.7261225 L9.95872095,32.223038 C9.80706684,31.9600925 9.52660176,31.7980819 9.22305724,31.7980819 C8.91951272,31.7980819 8.63904765,31.9600925 8.48739353,32.223038 L0.113778322,46.7261225 C-0.0378482159,46.988747 -0.0379312803,47.3122944 0.113560391,47.5749968 C0.265052061,47.8376991 0.54512787,47.9996882 0.848380468,47.9999991 Z" id="路径" fill="url(#linearGradient-1)"></path>
                    <path d="M38.4999251,19.57769 L13.6593323,29.9619071 C13.4338486,30.0556836 13.2596463,30.2419884 13.1812031,30.4732536 C13.1027598,30.7045189 13.1276683,30.9583603 13.2495687,31.1699667 L22.7165946,47.5753736 C22.8681431,47.8378635 23.1480998,47.9996882 23.4511968,48 L54.2938713,48 C54.5975031,48.000447 54.8782741,47.8387576 55.0302839,47.5759164 C55.1822938,47.3130752 55.182413,46.9890755 55.0305965,46.7261225 L39.5636121,19.9364986 C39.3499129,19.5662018 38.8942582,19.412498 38.4999251,19.57769 Z" id="路径" fill="url(#linearGradient-2)"></path>
                    <path d="M26.8460778,0.424956058 L12.737895,24.868524 C12.5564307,25.1837609 12.5958677,25.5795586 12.8359667,25.8527912 C13.0760656,26.1260239 13.4635091,26.2160162 13.7994588,26.0765836 L36.533909,16.5734645 C36.7590217,16.4792652 36.9327351,16.2927817 37.0107561,16.0615633 C37.088777,15.8303448 37.0635654,15.5767373 36.9415495,15.3654049 L28.3174052,0.424956058 C28.1657511,0.162010619 27.885286,2.43858267e-13 27.5817415,2.43858267e-13 C27.278197,2.43858267e-13 26.9977319,0.162010619 26.8460778,0.424956058 Z" id="路径" fill="url(#linearGradient-3)"></path>
                </g>
            </g>
        </g>
    </g>
</svg>